#!OML:ASF Y:\EmotionMaleHayes\Project 1\Capture day 1\Session 1\Male1.ASF
:FULLY-SPECIFIED
:DEGREES
1072
root 21.8884 17.3151 -1.07258 723.591 75 721.601
lowerback 4.15535 1.23568 -11.3295
upperback 5.66322 1.69336 -1.89246
thorax 3.38366 0.538292 4.33359
lowerneck -29.3875 2.70305 2.58065
upperneck 22.8595 2.84767 -0.567733
head 12.4731 1.42169 -0.101731
rclavicle -4.77083e-015 -2.8625e-014
rhumerus 52.8247 14.8496 -28.5272
rradius 42.9173
rwrist -5.40439
rhand 1.38647 -30.8703
rfingers 7.12502
rthumb 26.9177 -58.9734
lclavicle -4.77083e-015 -2.8625e-014
lhumerus 47.6618 -14.2447 23.9059
lradius 40.4326
lwrist 8.02041
lhand -8.36136 -20.4532
lfingers 7.12502
lthumb 17.5611 8.77366
rfemur -9.81166 -1.91147 4.93071
rtibia 6.10209
rfoot -3.52046 2.83913
rtoes 1.35632
lfemur 19.9845 -3.18172 -19.4844
ltibia 5.80557
lfoot -16.1654 12.4677
ltoes -16.6636
1073
root 21.9697 17.2993 -1.02863 723.238 75.1953 721.229
lowerback 4.34593 1.21092 -11.2676
upperback 5.80565 1.65231 -1.87095
thorax 3.43536 0.51478 4.31998
lowerneck -29.7418 2.70379 2.73219
upperneck 23.1462 2.84656 -0.811675
head 12.6598 1.39799 -0.215624
rclavicle 1.59028e-014 -5.24792e-014
rhumerus 52.9092 14.6839 -28.426
rradius 42.9324
rwrist -5.63182
rhand 1.27903 -30.7909
rfingers 7.12502
rthumb 26.8149 -58.9098
lclavicle 1.59028e-014 -5.24792e-014
lhumerus 47.7782 -14.0936 24.0071
lradius 40.5193
lwrist 8.13783
lhand -8.46851 -20.1435
lfingers 7.12502
lthumb 17.458 9.09258
rfemur -10.4544 -2.03875 5.57374
rtibia 6.05915
rfoot -3.17936 3.49528
rtoes 1.70655
lfemur 20.2786 -3.35339 -19.3067
ltibia 5.80223
lfoot -15.8733 12.6859
ltoes -18.433
1074
root 22.055 17.2826 -0.983585 723.268 75.3091 721.264
lowerback 4.67767 1.22716 -11.3163
upperback 5.79384 1.62709 -1.86833
thorax 3.23992 0.512049 4.34302
lowerneck -29.4225 2.67875 2.58092
upperneck 23.0958 2.87135 -0.745308
head 12.5774 1.40691 -0.163915
rclavicle 3.93594e-014 -4.92986e-014
rhumerus 52.9621 14.6785 -28.449
rradius 42.8344
rwrist -5.68152
rhand 1.38376 -30.8544
rfingers 7.12502
rthumb 26.9151 -58.9579
lclavicle 3.93594e-014 -4.92986e-014
lhumerus 47.6657 -14.1714 24.2259
lradius 40.5853
lwrist 8.14972
lhand -8.58085 -19.9961
lfingers 7.12502
lthumb 17.3499 9.24948
rfemur -11.1442 -2.19979 6.13033
rtibia 6.11422
rfoot -2.90724 4.17703
rtoes 2.6026
lfemur 20.6349 -3.5215 -19.2912
ltibia 5.7606
lfoot -15.7353 12.8288
ltoes -19.0806
1075
root 22.1421 17.2651 -0.935923 723.967 75.4562 721.979
lowerback 5.19475 1.25803 -11.5268
upperback 5.66213 1.57962 -1.91621
thorax 2.81707 0.509496 4.39851
lowerneck -29.1528 2.66109 2.53199
upperneck 23.1631 2.85889 -0.670269
head 12.552 1.4104 -0.131473
rclavicle -2.3059e-014 4.29375e-014
rhumerus 52.6968 14.8416 -28.5994
rradius 42.9353
rwrist -5.63838
rhand 1.31429 -30.9198
rfingers 7.12502
rthumb 26.8486 -59.0336
lclavicle -2.3059e-014 4.29375e-014
lhumerus 47.4735 -14.3303 24.5681
lradius 40.651
lwrist 7.87668
lhand -8.61207 -20.1112
lfingers 7.12502
lthumb 17.3198 9.13707
rfemur -11.8024 -2.56268 6.49939
rtibia 6.04472
rfoot -2.52255 4.99721
rtoes 2.41327
lfemur 20.9346 -3.78782 -19.5345
ltibia 5.81086
lfoot -15.8218 12.8907
ltoes -16.8826
1076
root 22.2351 17.246 -0.888171 724.505 75.7073 722.509
lowerback 5.76482 1.26462 -11.6053
upperback 5.49233 1.48868 -1.95808
thorax 2.33193 0.494214 4.38866
lowerneck -28.9357 2.64645 2.60645
upperneck 23.2835 2.83643 -0.731288
head 12.562 1.40103 -0.17266
rclavicle -1.78906e-014 9.54166e-015
rhumerus 52.3616 15.0572 -28.7611
rradius 43.0189
rwrist -5.63519
rhand 1.1825 -30.9406
rfingers 7.12502
rthumb 26.7225 -59.0737
lclavicle -1.78906e-014 9.54166e-015
lhumerus 47.3931 -14.6039 24.7174
lradius 40.7254
lwrist 7.87499
lhand -8.65368 -20.2653
lfingers 7.12502
lthumb 17.2798 8.98653
rfemur -12.3854 -3.2895 6.95182
rtibia 5.98318
rfoot -2.0417 6.1731
rtoes 1.94737
lfemur 21.1898 -4.01368 -19.702
ltibia 5.97037
lfoot -16.5297 12.6139
ltoes -16.0667
1077
root 22.3282 17.2271 -0.840048 725.069 75.9581 723
lowerback 5.29197 1.15212 -11.769
upperback 5.99619 1.46422 -1.91764
thorax 3.14084 0.421131 4.53552
lowerneck -29.0575 2.72811 2.66347
upperneck 22.9814 2.97236 -0.932874
head 12.4712 1.43418 -0.234696
rclavicle 4.77083e-015 -3.18055e-015
rhumerus 52.8612 14.4684 -28.5975
rradius 42.9606
rwrist -5.7579
rhand 1.09144 -31.0361
rfingers 7.12502
rthumb 26.6354 -59.1824
lclavicle 4.77083e-015 -3.18055e-015
lhumerus 47.7018 -13.9777 24.8019
lradius 40.6336
lwrist 8.02143
lhand -8.83813 -20.3862
lfingers 7.12502
lthumb 17.1022 8.88106
rfemur -13.0555 -3.89075 7.43025
rtibia 6.02696
rfoot -1.42371 7.37844
rtoes 3.1472
lfemur 21.3126 -4.12759 -19.7752
ltibia 6.20892
lfoot -16.4193 12.7097
ltoes -15.6272
1078
root 22.4268 17.2083 -0.789885 726.087 76.2078 723.934
lowerback 5.52634 1.13681 -11.8519
upperback 5.91876 1.40479 -2.02337
thorax 2.9389 0.405885 4.46734
lowerneck -28.8341 2.7073 2.66176
upperneck 23.1884 2.94471 -0.882593
head 12.5109 1.43208 -0.221146
rclavicle -8.34896e-015 4.92986e-014
rhumerus 52.7494 14.5526 -28.5687
rradius 42.9833
rwrist -6.00055
rhand 1.08006 -31.1903
rfingers 7.12502
rthumb 26.6245 -59.3383
lclavicle -8.34896e-015 4.92986e-014
lhumerus 47.7323 -14.2275 24.7915
lradius 40.6311
lwrist 8.06074
lhand -9.11708 -20.3879
lfingers 7.12502
lthumb 16.8337 8.9024
rfemur -13.7019 -4.52399 7.77767
rtibia 5.99092
rfoot -0.474607 8.64026
rtoes 5.18675
lfemur 21.4374 -4.26146 -19.9605
ltibia 6.37999
lfoot -16.2554 12.9149
ltoes -15.841
1079
root 22.5334 17.1869 -0.735957 726.743 76.4299 724.526
lowerback 5.61889 1.11751 -11.8885
upperback 5.90054 1.36461 -2.04671
thorax 2.87487 0.389895 4.46277
lowerneck -28.7338 2.65551 2.47303
upperneck 23.4306 2.92355 -0.740109
head 12.5825 1.4279 -0.138878
rclavicle 2.82274e-014 -3.18055e-014
rhumerus 52.7358 14.6407 -28.5565
rradius 42.926
rwrist -6.04555
rhand 1.07402 -31.1969
rfingers 7.12502
rthumb 26.6187 -59.3458
lclavicle 2.82274e-014 -3.18055e-014
lhumerus 47.7269 -14.4159 24.858
lradius 40.6229
lwrist 7.96397
lhand -9.41785 -20.377
lfingers 7.12502
lthumb 16.5442 8.93772
rfemur -14.2711 -5.24409 8.26389
rtibia 5.86123
rfoot 0.909351 9.84614
rtoes 7.99583
lfemur 21.6903 -4.43078 -20.0565
ltibia 6.47651
lfoot -16.2017 13.0097
ltoes -16.6209
1080
root 22.6386 17.1611 -0.68212 727.544 76.6843 725.258
lowerback 5.64475 1.05704 -12.0274
upperback 5.98747 1.28758 -2.00734
thorax 2.96677 0.339259 4.58381
lowerneck -28.72 2.69829 2.39275
upperneck 23.4943 3.04719 -0.824211
head 12.6076 1.4628 -0.134636
rclavicle 1.31198e-014 1.11319e-014
rhumerus 52.7819 14.5848 -28.6275
rradius 42.9316
rwrist -5.78868
rhand 0.897145 -30.9843
rfingers 7.12502
rthumb 26.4494 -59.1587
lclavicle 1.31198e-014 1.11319e-014
lhumerus 47.7565 -14.379 24.9222
lradius 40.5618
lwrist 7.95242
lhand -9.68364 -20.4494
lfingers 7.12502
lthumb 16.2883 8.88645
rfemur -14.8894 -5.90219 8.724
rtibia 5.88736
rfoot 2.37919 10.9067
rtoes 9.42582
lfemur 21.9321 -4.58608 -20.1501
ltibia 6.60004
lfoot -16.0381 12.967
ltoes -17.1881
1081
root 22.7475 17.1343 -0.629622 728.542 77.0189 726.177
lowerback 5.70128 0.959488 -12.162
upperback 6.07069 1.15864 -2.00332
thorax 3.04781 0.264827 4.66664
lowerneck -28.525 2.79932 2.59773
upperneck 23.4104 3.20126 -1.14243
head 12.5509 1.50511 -0.264179
rclavicle 2.50469e-014 -7.95139e-015
rhumerus 52.921 14.5715 -28.5066
rradius 42.992
rwrist -5.81232
rhand 0.828302 -30.9504
rfingers 7.12502
rthumb 26.3835 -59.1347
lclavicle 2.50469e-014 -7.95139e-015
lhumerus 47.7398 -14.29 25.0002
lradius 40.4885
lwrist 7.88949
lhand -9.85717 -20.5085
lfingers 7.12502
lthumb 16.1212 8.84101
rfemur -15.5199 -6.64093 9.13951
rtibia 6.07042
rfoot 3.97413 11.906
rtoes 9.52463
lfemur 22.1781 -4.74343 -20.2518
ltibia 6.69512
lfoot -16.0222 12.7965
ltoes -16.902
1082
root 22.8596 17.1074 -0.579479 730.726 77.29 728.244
lowerback 5.71221 0.896069 -12.3995
upperback 6.07369 1.07447 -2.12607
thorax 3.06427 0.218649 4.67113
lowerneck -28.3848 2.70104 2.64036
upperneck 23.5133 3.072 -1.20307
head 12.5652 1.44531 -0.319582
rclavicle -1.31198e-014 -3.02153e-014
rhumerus 52.9927 14.6197 -28.339
rradius 42.9764
rwrist -5.94553
rhand 0.913217 -31.0065
rfingers 7.12502
rthumb 26.4648 -59.1787
lclavicle -1.31198e-014 -3.02153e-014
lhumerus 47.7146 -14.3374 25.0947
lradius 40.4721
lwrist 7.76449
lhand -9.90346 -20.5973
lfingers 7.12502
lthumb 16.0766 8.7558
rfemur -16.306 -7.8112 9.29871
rtibia 6.49902
rfoot 6.41749 12.8424
rtoes 13.6673
lfemur 22.3284 -4.83228 -20.6466
ltibia 6.87751
lfoot -16.2839 12.4715
ltoes -15.7664
1083
root 22.963 17.0752 -0.526462 732.779 77.3565 730.098
lowerback 5.70907 0.930931 -12.6087
upperback 6.01268 1.11302 -2.22572
thorax 2.99761 0.239602 4.67973
lowerneck -28.3972 2.6906 2.59357
upperneck 23.7966 3.07382 -1.15727
head 12.6792 1.44948 -0.292331
rclavicle 3.10104e-014 7.95139e-014
rhumerus 52.875 14.6096 -28.2613
rradius 42.9973
rwrist -5.82143
rhand 1.08111 -31.0201
rfingers 7.12502
rthumb 26.6255 -59.1679
lclavicle 3.10104e-014 7.95139e-014
lhumerus 47.7239 -14.4758 25.1861
lradius 40.5022
lwrist 7.87582
lhand -9.59916 -20.781
lfingers 7.12502
lthumb 16.3696 8.54821
rfemur -17.3368 -8.74348 9.55737
rtibia 7.14345
rfoot 9.28061 13.3995
rtoes 21.6752
lfemur 22.3681 -4.76064 -20.9061
ltibia 7.07921
lfoot -16.6132 12.1099
ltoes -14.566
1084
root 23.0652 17.0434 -0.464439 732.715 77.7839 729.867
lowerback 5.8292 0.857104 -12.4321
upperback 6.04676 1.00239 -2.1146
thorax 2.9825 0.187652 4.70237
lowerneck -28.4895 2.69441 2.50756
upperneck 23.9964 3.1014 -1.0947
head 12.7747 1.46238 -0.246852
rclavicle -6.36111e-015 -3.97569e-014
rhumerus 53.0173 14.5705 -28.0301
rradius 43.0062
rwrist -5.86953
rhand 1.2556 -31.1252
rfingers 7.12502
rthumb 26.7925 -59.2476
lclavicle -6.36111e-015 -3.97569e-014
lhumerus 47.7064 -14.4767 25.1766
lradius 40.5332
lwrist 8.04345
lhand -9.06175 -20.8064
lfingers 7.12502
lthumb 16.887 8.4794
rfemur -17.9353 -8.59524 10.2437
rtibia 7.48342
rfoot 10.7502 12.9405
rtoes 27.8763
lfemur 22.4451 -4.7484 -20.2758
ltibia 7.30051
lfoot -16.674 11.6368
ltoes -15.1992
1085
root 23.1776 17.006 -0.400908 732.529 78.1665 729.564
lowerback 5.67768 0.756078 -12.2163
upperback 6.22611 0.916846 -2.01754
thorax 3.27171 0.12923 4.69074
lowerneck -28.5181 2.75142 2.59223
upperneck 24.0652 3.18902 -1.23347
head 12.8141 1.48856 -0.297266
rclavicle -1.98785e-015 1.74931e-014
rhumerus 53.3991 14.4449 -27.7445
rradius 42.9114
rwrist -6.00491
rhand 1.39818 -31.166
rfingers 7.12502
rthumb 26.9289 -59.2674
lclavicle -1.98785e-015 1.74931e-014
lhumerus 47.8033 -14.3449 24.9809
lradius 40.5362
lwrist 8.07208
lhand -8.77188 -20.662
lfingers 7.12502
lthumb 17.166 8.59974
rfemur -18.3925 -7.91855 10.8115
rtibia 8.13845
rfoot 10.6532 12.2288
rtoes 31.2771
lfemur 22.634 -4.6356 -19.6397
ltibia 7.54122
lfoot -16.6273 11.1481
ltoes -16.8586
